<?xml version="1.0" encoding="utf-8"?>
<!-- Generator: Adobe Illustrator 24.0.3, SVG Export Plug-In . SVG Version: 6.00 Build 0)  -->
<svg version="1.1" id="Layer_1" xmlns="http://www.w3.org/2000/svg" xmlns:xlink="http://www.w3.org/1999/xlink" x="0px" y="0px"
	 viewBox="0 0 841.9 595.3" style="enable-background:new 0 0 841.9 595.3;" xml:space="preserve">
<style type="text/css">
	.st0{clip-path:url(#SVGID_2_);}
	.st1{fill:#E30613;}
	.st2{fill:#FFEE00;}
	.st3{fill:#D1338A;}
	.st4{fill:#3AAA35;}
	.st5{fill:#604696;}
	.st6{fill:#EC6730;}
	.st7{fill:#3192D0;}
	.st8{clip-path:url(#SVGID_2_);fill:#3C3C3B;}
	.st9{fill:#FFFFFF;}
	.st10{fill:none;stroke:#FFFFFF;stroke-miterlimit:10;}
</style>
<g>
	<defs>
		<circle id="SVGID_1_" cx="421" cy="297.6" r="89"/>
	</defs>
	<clipPath id="SVGID_2_">
		<use xlink:href="#SVGID_1_"  style="overflow:visible;"/>
	</clipPath>
	<g class="st0">
		<rect x="343.9" y="238.7" class="st1" width="11.7" height="136.5"/>
		<path class="st1" d="M350.5,220h-1.4c-2.8,0-5.2,2.3-5.2,5.2v9.5h11.7v-9.5C355.6,222.3,353.3,220,350.5,220z"/>
	</g>
	<g class="st0">
		<rect x="367.7" y="253.5" class="st2" width="11.7" height="106.2"/>
		<path class="st2" d="M374.2,234.8h-1.4c-2.8,0-5.2,2.3-5.2,5.2v9.5h11.7V240C379.4,237.1,377,234.8,374.2,234.8z"/>
	</g>
	<g class="st0">
		<rect x="391.4" y="238.7" class="st3" width="11.7" height="136.5"/>
		<path class="st3" d="M397.9,220h-1.4c-2.8,0-5.2,2.3-5.2,5.2v9.5h11.7v-9.5C403.1,222.3,400.8,220,397.9,220z"/>
	</g>
	<g class="st0">
		<rect x="415.2" y="253.5" class="st4" width="11.7" height="106.2"/>
		<path class="st4" d="M421.7,234.8h-1.4c-2.8,0-5.2,2.3-5.2,5.2v9.5h11.7V240C426.8,237.1,424.5,234.8,421.7,234.8z"/>
	</g>
	<g class="st0">
		<rect x="438.9" y="238.7" class="st5" width="11.7" height="136.5"/>
		<path class="st5" d="M445.4,220h-1.4c-2.8,0-5.2,2.3-5.2,5.2v9.5h11.7v-9.5C450.6,222.3,448.3,220,445.4,220z"/>
	</g>
	<g class="st0">
		<rect x="462.7" y="253.5" class="st6" width="11.7" height="106.2"/>
		<path class="st6" d="M469.2,234.8h-1.4c-2.8,0-5.2,2.3-5.2,5.2v9.5h11.7V240C474.3,237.1,472,234.8,469.2,234.8z"/>
	</g>
	<g class="st0">
		<rect x="486.4" y="238.7" class="st7" width="11.7" height="136.5"/>
		<path class="st7" d="M492.9,220h-1.4c-2.8,0-5.2,2.3-5.2,5.2v9.5h11.7v-9.5C498.1,222.3,495.8,220,492.9,220z"/>
	</g>
	<rect x="332" y="267.7" class="st8" width="177.9" height="60.1"/>
	<g class="st0">
		<path class="st9" d="M383.8,274.3c6.9,0,10.4,4.1,10.4,11.3v1.4h-6.7v-1.9c0-3.2-1.3-4.4-3.5-4.4c-2.3,0-3.5,1.2-3.5,4.4
			c0,9.3,13.8,11,13.8,23.9c0,7.2-3.6,11.3-10.6,11.3c-7,0-10.6-4.1-10.6-11.3v-2.8h6.7v3.2c0,3.2,1.4,4.4,3.7,4.4
			c2.3,0,3.7-1.2,3.7-4.4c0-9.3-13.8-11-13.8-23.9C373.4,278.4,377,274.3,383.8,274.3z"/>
		<path class="st9" d="M407.7,274.8h21.9v6.4h-7.4v38.6h-7.1v-38.6h-7.4V274.8z"/>
		<path class="st9" d="M468.5,319.9h-7.1l-1.2-8.2h-8.7l-1.2,8.2h-6.5l7.2-45.1h10.4L468.5,319.9z M452.3,305.6h6.8l-3.4-22.8
			L452.3,305.6z"/>
	</g>
</g>
<circle class="st10" cx="421" cy="297.6" r="89"/>
</svg>
