<svg width="42" height="42" viewBox="0 0 42 42" fill="none" xmlns="http://www.w3.org/2000/svg">
<g clip-path="url(#clip0_1191_9737)">
<path d="M3.53288 3.0589H1.08008V23.2868H3.53288V3.0589Z" fill="#E30613"/>
<path d="M2.44957 0H2.15977C1.56337 0 1.07617 0.376227 1.07617 0.844057V2.40131H3.52897V0.844057C3.52897 0.379498 3.04597 0 2.44537 0" fill="#E30613"/>
<path d="M8.51725 5.47656H6.06445V20.7448H8.51725V5.47656Z" fill="#FFEE00"/>
<path d="M7.43756 2.41766H7.15196C6.55556 2.41766 6.06836 2.79389 6.06836 3.26172V4.81897H8.52116V3.26172C8.52116 2.79716 8.03816 2.41766 7.43756 2.41766Z" fill="#FFEE00"/>
<path d="M13.5075 3.0589H11.0547V23.2868H13.5075V3.0589Z" fill="#D1338A"/>
<path d="M12.4242 0H12.1344C11.538 0 11.0508 0.376227 11.0508 0.844057V2.40131H13.5036V0.844057C13.5036 0.379498 13.0206 0 12.42 0" fill="#D1338A"/>
<path d="M18.4919 5.47656H16.0391V20.7448H18.4919V5.47656Z" fill="#3AAA35"/>
<path d="M17.4086 2.41766H17.1188C16.5224 2.41766 16.0352 2.79389 16.0352 3.26172V4.81897H18.488V3.26172C18.488 2.79716 18.005 2.41766 17.4044 2.41766" fill="#3AAA35"/>
<path d="M23.4782 3.0589H21.0254V23.2868H23.4782V3.0589Z" fill="#604696"/>
<path d="M22.3949 0H22.1051C21.5087 0 21.0215 0.376227 21.0215 0.844057V2.40131H23.4743V0.844057C23.4743 0.379498 22.9913 0 22.3907 0" fill="#604696"/>
<path d="M28.4626 5.47656H26.0098V20.7448H28.4626V5.47656Z" fill="#EC6730"/>
<path d="M27.3832 2.41766H27.0934C26.497 2.41766 26.0098 2.79389 26.0098 3.26172V4.81897H28.4626V3.26172C28.4626 2.79716 27.9796 2.41766 27.379 2.41766" fill="#EC6730"/>
<path d="M33.4528 3.0589H31V23.2868H33.4528V3.0589Z" fill="#3192D0"/>
<path d="M32.3692 0H32.0836C31.4872 0 31 0.376227 31 0.844057V2.40131H33.4528V0.844057C33.4528 0.379498 32.9698 0 32.3692 0Z" fill="#3192D0"/>
<path d="M2.17049 25.8582C3.46409 25.8582 4.12349 26.4602 4.12349 27.5136V27.7197H2.86769V27.4482C2.86769 26.9771 2.62829 26.8004 2.20409 26.8004C1.77989 26.8004 1.54049 26.9771 1.54049 27.4482C1.54049 28.8026 4.13609 29.0545 4.13609 30.9356C4.13609 31.9891 3.45989 32.591 2.15789 32.591C0.855888 32.591 0.179688 31.9891 0.179688 30.9356V30.53H1.43549V31.0011C1.43549 31.4722 1.70009 31.639 2.12429 31.639C2.54849 31.639 2.81309 31.4689 2.81309 31.0011C2.81309 29.6467 0.217487 29.3947 0.217487 27.5136C0.217487 26.4602 0.881088 25.8582 2.17049 25.8582Z" fill="#FFFFFF"/>
<path d="M8.74937 30.0621V30.9356C8.74937 31.9891 8.07317 32.591 6.77117 32.591C5.46917 32.591 4.79297 31.9891 4.79297 30.9356V27.5136C4.79297 26.4602 5.46917 25.8582 6.77117 25.8582C8.07317 25.8582 8.74937 26.4602 8.74937 27.5136V28.1516H7.49357V27.4482C7.49357 26.9771 7.22897 26.8004 6.80477 26.8004C6.38057 26.8004 6.11597 26.9804 6.11597 27.4482V31.0011C6.11597 31.4722 6.38057 31.639 6.80477 31.639C7.22897 31.639 7.49357 31.4689 7.49357 31.0011V30.0621H8.74937Z" fill="#FFFFFF"/>
<path d="M9.44531 27.5136C9.44531 26.4602 10.1551 25.8582 11.4613 25.8582C12.7675 25.8582 13.4773 26.4602 13.4773 27.5136V30.9356C13.4773 31.9891 12.7675 32.591 11.4613 32.591C10.1551 32.591 9.44531 31.9891 9.44531 30.9356V27.5136ZM10.7725 31.0011C10.7725 31.4722 11.0371 31.6488 11.4613 31.6488C11.8855 31.6488 12.1501 31.4689 12.1501 31.0011V27.4482C12.1501 26.9771 11.8855 26.8004 11.4613 26.8004C11.0371 26.8004 10.7725 26.9804 10.7725 27.4482V31.0011Z" fill="#FFFFFF"/>
<path d="M13.9473 25.9335H18.0507V26.8757H16.6605V32.5158H15.3333V26.8757H13.9473V25.9335Z" fill="#FFFFFF"/>
<path d="M18.2441 25.9335H22.3433V26.8757H20.9573V32.5158H19.6301V26.8757H18.2441V25.9335Z" fill="#FFFFFF"/>
<path d="M24.251 25.9335H22.9238V32.5125H24.251V25.9335Z" fill="#FFFFFF"/>
<path d="M27.0025 25.8582C28.2919 25.8582 28.9555 26.4602 28.9555 27.5136V27.7197H27.6997V27.4482C27.6997 26.9771 27.4603 26.8004 27.0361 26.8004C26.6119 26.8004 26.3725 26.9771 26.3725 27.4482C26.3725 28.8026 28.9681 29.0545 28.9681 30.9356C28.9681 31.9891 28.2919 32.591 26.9899 32.591C25.6879 32.591 25.0117 31.9891 25.0117 30.9356V30.53H26.2675V31.0011C26.2675 31.4722 26.5321 31.639 26.9563 31.639C27.3805 31.639 27.6451 31.4689 27.6451 31.0011C27.6451 29.6467 25.0495 29.3947 25.0495 27.5136C25.0495 26.4602 25.7131 25.8582 27.0025 25.8582Z" fill="#FFFFFF"/>
<path d="M31.0557 32.5158H29.7285V25.9335H31.0557V28.7535H32.5635V25.9335H33.9159V32.5158H32.5635V29.6957H31.0557V32.5158Z" fill="#FFFFFF"/>
<path d="M0 35.3457H4.1034V36.2879H2.7132V41.9248H1.386V36.2879H0V35.3457Z" fill="#FFFFFF"/>
<path d="M6.01079 38.12H7.82939V39.0589H6.01079V40.9858H8.30399V41.9248H4.68359V35.3457H8.30399V36.2879H6.01079V38.12Z" fill="#FFFFFF"/>
<path d="M12.9701 39.4744V40.3479C12.9701 41.4013 12.2939 42.0033 10.9919 42.0033C9.68987 42.0033 9.01367 41.4013 9.01367 40.3479V36.9258C9.01367 35.8724 9.68987 35.2704 10.9919 35.2704C12.2939 35.2704 12.9701 35.8724 12.9701 36.9258V37.5638H11.7143V36.8604C11.7143 36.3893 11.4497 36.2127 11.0255 36.2127C10.6013 36.2127 10.3367 36.3926 10.3367 36.8604V40.4133C10.3367 40.8844 10.6013 41.0513 11.0255 41.0513C11.4497 41.0513 11.7143 40.8811 11.7143 40.4133V39.4744H12.9701Z" fill="#FFFFFF"/>
<path d="M15.1065 41.9248H13.7793V35.3457H15.1065V38.1658H16.6143V35.3457H17.9667V41.9248H16.6143V39.1047H15.1065V41.9248Z" fill="#FFFFFF"/>
<path d="M25.7588 41.9248H24.419L24.188 40.7307H22.5584L22.3274 41.9248H21.1094L22.4618 35.3457H24.4064L25.7588 41.9248ZM22.7306 39.8375H24.0116L23.3732 36.5104L22.7348 39.8375H22.7306Z" fill="#FFFFFF"/>
<path d="M29.1532 41.9248C29.0818 41.7546 29.0314 41.6532 29.0314 41.1167V40.0829C29.0314 39.4711 28.7668 39.2454 28.162 39.2454H27.7042V41.9248H26.377V35.3457H28.3804C29.758 35.3457 30.346 35.843 30.346 36.8604V37.3773C30.346 38.0545 30.0688 38.4962 29.4766 38.7121C30.1402 38.928 30.3586 39.4253 30.3586 40.1123V41.1265C30.3586 41.4471 30.3712 41.6827 30.5014 41.9248H29.149H29.1532ZM27.7042 36.2846V38.3064H28.225C28.7206 38.3064 29.023 38.1363 29.023 37.6096V36.9618C29.023 36.4907 28.8172 36.2846 28.3468 36.2846H27.7084H27.7042Z" fill="#FFFFFF"/>
<path d="M34.0372 40.0175L34.9444 35.3457H36.7882V41.9248H35.5324V37.2072L34.6168 41.9248H33.361L32.374 37.2726V41.9248H31.2148V35.3457H33.0586L34.0372 40.0175Z" fill="#FFFFFF"/>
<path d="M38.9964 39.7459L37.3164 35.3457H38.7066L39.7188 38.3457L40.731 35.3457H41.9994L40.3236 39.7459V41.9248H38.9964V39.7459Z" fill="#FFFFFF"/>
</g>
<defs>
<clipPath id="clip0_1191_9737">
<rect width="42" height="42" fill="white"/>
</clipPath>
</defs>
</svg>
