<svg xmlns="http://www.w3.org/2000/svg" width="218" height="190" fill="none"><path fill="#E30613" d="m184.742 156.219 14.16 6.252 66.207-149.952-14.16-6.252-66.207 149.952ZM180.995 181.646l1.667.736c3.445 1.521 7.464-.036 8.997-3.508l5.094-11.537-14.16-6.252-5.094 11.537a6.842 6.842 0 0 0 3.496 9.024"/><path fill="#FE0" d="m163.875 125.576 14.16 6.252 49.972-113.181-14.16-6.252-49.972 113.181ZM160.089 151.018l1.668.736a6.842 6.842 0 0 0 9.024-3.496l5.094-11.537-14.16-6.252-5.094 11.537a6.842 6.842 0 0 0 3.496 9.024"/><path fill="#D1338A" d="m127.173 130.8 14.16 6.252 66.208-149.951-14.16-6.252L127.173 130.8ZM123.399 156.216l1.667.736a6.842 6.842 0 0 0 9.024-3.497l5.094-11.536-14.16-6.252-5.094 11.536a6.843 6.843 0 0 0 3.496 9.025"/><path fill="#3AAA35" d="m106.306 100.157 14.16 6.252 49.972-113.18-14.16-6.253-49.972 113.181ZM102.52 125.599l1.668.737a6.843 6.843 0 0 0 9.024-3.497l5.094-11.537-14.16-6.252-5.094 11.537a6.843 6.843 0 0 0 3.496 9.025"/><path fill="#604696" d="m69.576 105.37 14.16 6.252 66.208-149.951-14.16-6.252L69.576 105.37ZM65.829 130.797l1.667.736a6.842 6.842 0 0 0 9.024-3.496l5.094-11.537-14.16-6.252-5.094 11.537a6.842 6.842 0 0 0 3.496 9.024"/><path fill="#EC6730" d="m48.71 74.727 14.16 6.251 49.972-113.18-14.16-6.253L48.709 74.726ZM44.952 100.181l1.667.737a6.843 6.843 0 0 0 9.024-3.497l5.094-11.537-14.16-6.252-5.094 11.537a6.843 6.843 0 0 0 3.496 9.025"/><path fill="#3192D0" d="m12.007 79.951 14.16 6.252L92.374-63.748 78.214-70 12.007 79.95ZM8.26 110.378l1.667.737a6.843 6.843 0 0 0 9.024-3.497l5.094-11.537-14.16-6.252-5.094 11.537a6.841 6.841 0 0 0 3.496 9.024"/></svg>