<svg width="24" height="20" viewBox="0 0 24 20" fill="currentColor" xmlns="http://www.w3.org/2000/svg">
<path d="M5.53002 7.77639L16.7571 4.61305L18.562 11.6965L7.33499 14.8598L5.53002 7.77639ZM18.1 0.43865C19.3385 0.0896939 20.6147 0.862966 20.9471 2.16713L21.6991 5.11857C20.7694 5.38054 20.2172 6.38627 20.4663 7.36394C20.7154 8.3416 21.6719 8.92227 22.6016 8.6603L23.3537 11.6117C23.6855 12.9141 22.9484 14.2566 21.7099 14.6056L5.99206 19.0342C4.75182 19.3837 3.47685 18.6081 3.145 17.3058L2.39293 14.3543C3.32302 14.0923 3.87487 13.0866 3.62574 12.109C3.37662 11.1313 2.42053 10.5505 1.49044 10.8126L0.738374 7.86115C0.406054 6.55698 1.14189 5.21678 2.38213 4.86733L18.1 0.43865ZM6.21228 15.1762C6.37868 15.8292 7.01482 16.2154 7.63582 16.0404L18.8629 12.8771C19.4839 12.7021 19.8511 12.0332 19.6847 11.3802L17.8798 4.29671C17.7134 3.64371 17.0772 3.2575 16.4562 3.43247L5.22919 6.59581C4.6082 6.77079 4.24092 7.43972 4.40732 8.09272L6.21228 15.1762Z"/>
</svg>
