<svg width="23" height="22" viewBox="0 0 23 22" fill="currentColor" xmlns="http://www.w3.org/2000/svg">
<path d="M20.3703 12.327L20.3981 19.0499C20.3981 19.1675 20.3902 19.2767 20.3783 19.39V20.0703C20.3783 20.9983 19.669 21.75 18.7932 21.75H18.1592C18.1156 21.75 18.072 21.7122 18.0285 21.7458C17.973 21.7122 17.9175 21.75 17.862 21.75H15.6232C14.7474 21.75 14.0381 20.9983 14.0381 20.0703V16.375C14.0381 15.6317 13.4715 15.0312 12.7701 15.0312H10.2341C9.53268 15.0312 8.96603 15.6317 8.96603 16.375V20.0703C8.96603 20.9983 8.25673 21.75 7.381 21.75H5.16591C5.10647 21.75 5.04703 21.7458 4.9876 21.7416C4.94005 21.7458 4.89249 21.75 4.84494 21.75H4.21093C3.3356 21.75 2.6259 20.9983 2.6259 20.0703V15.3672C2.6259 15.3294 2.62709 15.2874 2.62946 15.2496V12.327H1.35985C0.645398 12.327 0.0898438 11.7349 0.0898438 10.979C0.0898438 10.6011 0.20888 10.2651 0.486498 9.97119L10.6462 0.586609C10.9235 0.292076 11.2406 0.25 11.5179 0.25C11.7953 0.25 12.1123 0.334152 12.354 0.544533L16.5742 4.47861V2.9375C16.5742 2.1955 17.1408 1.59375 17.8422 1.59375H19.1102C19.8116 1.59375 20.3783 2.1955 20.3783 2.9375V8.01855L22.4705 9.97119C22.7875 10.2651 22.95 10.6011 22.9064 10.979C22.9064 11.7349 22.312 12.327 21.6384 12.327H20.3703Z" />
</svg>
