<svg width="32" height="32" viewBox="0 0 32 32" fill="none" xmlns="http://www.w3.org/2000/svg">
<path d="M25.2 27.0667L17.7333 19.6C17.0667 20.1333 16.3 20.5556 15.4333 20.8667C14.5667 21.1778 13.6444 21.3333 12.6667 21.3333C10.2444 21.3333 8.19467 20.4947 6.51733 18.8173C4.83911 17.1391 4 15.0889 4 12.6667C4 10.2444 4.83911 8.19422 6.51733 6.516C8.19467 4.83867 10.2444 4 12.6667 4C15.0889 4 17.1391 4.83867 18.8173 6.516C20.4947 8.19422 21.3333 10.2444 21.3333 12.6667C21.3333 13.6444 21.1778 14.5667 20.8667 15.4333C20.5556 16.3 20.1333 17.0667 19.6 17.7333L27.1 25.2333C27.3444 25.4778 27.4667 25.7778 27.4667 26.1333C27.4667 26.4889 27.3333 26.8 27.0667 27.0667C26.8222 27.3111 26.5111 27.4333 26.1333 27.4333C25.7556 27.4333 25.4444 27.3111 25.2 27.0667V27.0667ZM12.6667 18.6667C14.3333 18.6667 15.7502 18.0836 16.9173 16.9173C18.0836 15.7502 18.6667 14.3333 18.6667 12.6667C18.6667 11 18.0836 9.58311 16.9173 8.416C15.7502 7.24978 14.3333 6.66667 12.6667 6.66667C11 6.66667 9.58311 7.24978 8.416 8.416C7.24978 9.58311 6.66667 11 6.66667 12.6667C6.66667 14.3333 7.24978 15.7502 8.416 16.9173C9.58311 18.0836 11 18.6667 12.6667 18.6667Z" fill="black"/>
</svg>
