<svg width="21" height="16" viewBox="0 0 21 16" fill="currentColor" xmlns="http://www.w3.org/2000/svg">
<path d="M6.22151 4.625C6.22151 5.66094 5.42358 6.5 4.43842 6.5H2.29871C1.314 6.5 0.515625 5.66094 0.515625 4.625V2.375C0.515625 1.33906 1.314 0.5 2.29871 0.5H4.43842C5.42358 0.5 6.22151 1.33906 6.22151 2.375V4.625ZM6.22151 13.625C6.22151 14.6609 5.42358 15.5 4.43842 15.5H2.29871C1.314 15.5 0.515625 14.6609 0.515625 13.625V11.375C0.515625 10.3391 1.314 9.5 2.29871 9.5H4.43842C5.42358 9.5 6.22151 10.3391 6.22151 11.375V13.625ZM7.64798 2.375C7.64798 1.33906 8.44591 0.5 9.43107 0.5H11.5708C12.5559 0.5 13.3539 1.33906 13.3539 2.375V4.625C13.3539 5.66094 12.5559 6.5 11.5708 6.5H9.43107C8.44591 6.5 7.64798 5.66094 7.64798 4.625V2.375ZM13.3539 13.625C13.3539 14.6609 12.5559 15.5 11.5708 15.5H9.43107C8.44591 15.5 7.64798 14.6609 7.64798 13.625V11.375C7.64798 10.3391 8.44591 9.5 9.43107 9.5H11.5708C12.5559 9.5 13.3539 10.3391 13.3539 11.375V13.625ZM14.7803 2.375C14.7803 1.33906 15.5783 0.5 16.5634 0.5H18.7031C19.6883 0.5 20.4862 1.33906 20.4862 2.375V4.625C20.4862 5.66094 19.6883 6.5 18.7031 6.5H16.5634C15.5783 6.5 14.7803 5.66094 14.7803 4.625V2.375ZM20.4862 13.625C20.4862 14.6609 19.6883 15.5 18.7031 15.5H16.5634C15.5783 15.5 14.7803 14.6609 14.7803 13.625V11.375C14.7803 10.3391 15.5783 9.5 16.5634 9.5H18.7031C19.6883 9.5 20.4862 10.3391 20.4862 11.375V13.625Z"/>
</svg>
