<svg width="294" height="93" viewBox="0 0 294 93" fill="none" xmlns="http://www.w3.org/2000/svg">
<g clip-path="url(#clip0_674_2389)">
<path d="M7.57031 12.2104H0V93H7.57031V12.2104Z" fill="#E30613"/>
<path d="M4.22359 0H3.33211C1.49068 0 0 1.50238 0 3.37298V9.58869H7.57031V3.37298C7.57031 1.5171 6.07963 0 4.22359 0Z" fill="#E30613"/>
<path d="M22.959 21.8728H15.3887V82.8516H22.959V21.8728Z" fill="#FFEE00"/>
<path d="M19.6269 9.64758H18.7354C16.894 9.64758 15.3887 11.15 15.3887 13.0206V19.2363H22.959V13.0206C22.959 11.1647 21.4683 9.64758 19.6123 9.64758" fill="#FFEE00"/>
<path d="M38.3477 12.2104H30.7773V93H38.3477V12.2104Z" fill="#D1338A"/>
<path d="M35.0155 0H34.1241C32.2826 0 30.7773 1.50238 30.7773 3.37298V9.58869H38.3477V3.37298C38.3477 1.5171 36.857 0 35.0009 0" fill="#D1338A"/>
<path d="M53.7383 21.8728H46.168V82.8516H53.7383V21.8728Z" fill="#3AAA35"/>
<path d="M50.4062 9.64758H49.5147C47.6733 9.64758 46.168 11.15 46.168 13.0206V19.2363H53.7383V13.0206C53.7383 11.1647 52.2476 9.64758 50.3916 9.64758" fill="#3AAA35"/>
<path d="M69.1406 12.2104H61.5703V93H69.1406V12.2104Z" fill="#604696"/>
<path d="M65.7949 0H64.9034C63.0619 0 61.5566 1.50238 61.5566 3.37298V9.58869H69.127V3.37298C69.127 1.5171 67.6363 0 65.7802 0" fill="#604696"/>
<path d="M84.5313 21.8728H76.9609V82.8516H84.5313V21.8728Z" fill="#EC6730"/>
<path d="M81.1835 9.64758H80.292C78.4506 9.64758 76.9453 11.15 76.9453 13.0206V19.2363H84.5156V13.0206C84.5156 11.1647 83.0249 9.64758 81.1689 9.64758" fill="#EC6730"/>
<path d="M99.9199 12.2104H92.3496V93H99.9199V12.2104Z" fill="#3192D0"/>
<path d="M96.5722 0H95.6807C93.8393 0 92.334 1.50238 92.334 3.37298V9.58869H99.9043V3.37298C99.9043 1.5171 98.4136 0 96.5576 0" fill="#3192D0"/>
<path d="M122.176 1.26672C127.744 1.26672 130.609 4.62497 130.609 10.5019V11.6508H125.202V10.1337C125.202 7.51189 124.164 6.51031 122.337 6.51031C120.51 6.51031 119.473 7.51189 119.473 10.1337C119.473 17.6898 130.667 19.1038 130.667 29.5909C130.667 35.4679 127.744 38.8261 122.133 38.8261C116.521 38.8261 113.598 35.4679 113.598 29.5909V27.3374H119.005V29.9592C119.005 32.5809 120.145 33.5236 121.972 33.5236C123.799 33.5236 124.939 32.5809 124.939 29.9592C124.939 22.4031 113.744 20.9891 113.744 10.5019C113.744 4.62497 116.608 1.26672 122.176 1.26672Z" fill="#FFFFFF"/>
<path d="M150.544 24.7156V29.5909C150.544 35.4679 147.636 38.8261 142.009 38.8261C136.383 38.8261 133.475 35.4679 133.475 29.5909V10.5019C133.475 4.62497 136.383 1.26672 142.009 1.26672C147.636 1.26672 150.544 4.62497 150.544 10.5019V14.0664H145.137V10.1337C145.137 7.51189 143.997 6.51031 142.17 6.51031C140.343 6.51031 139.203 7.51189 139.203 10.1337V29.9592C139.203 32.5809 140.343 33.5236 142.17 33.5236C143.997 33.5236 145.137 32.5809 145.137 29.9592V24.7156H150.544Z" fill="#FFFFFF"/>
<path d="M153.568 10.5019C153.568 4.62497 156.637 1.26672 162.264 1.26672C167.891 1.26672 170.96 4.62497 170.96 10.5019V29.5909C170.96 35.4679 167.891 38.8261 162.264 38.8261C156.637 38.8261 153.568 35.4679 153.568 29.5909V10.5019ZM159.297 29.9592C159.297 32.5809 160.437 33.5825 162.264 33.5825C164.091 33.5825 165.231 32.5809 165.231 29.9592V10.1337C165.231 7.51189 164.091 6.51031 162.264 6.51031C160.437 6.51031 159.297 7.51189 159.297 10.1337V29.9592Z" fill="#FFFFFF"/>
<path d="M172.977 1.69385H190.675V6.93743H184.697V38.4137H178.969V6.93743H172.977V1.69385Z" fill="#FFFFFF"/>
<path d="M191.508 1.69385H209.206V6.93743H203.214V38.4137H197.5V6.93743H191.508V1.69385Z" fill="#FFFFFF"/>
<path d="M217.434 1.69385H211.705V38.4137H217.434V1.69385Z" fill="#FFFFFF"/>
<path d="M229.301 1.26672C234.869 1.26672 237.734 4.62497 237.734 10.5019V11.6508H232.327V10.1337C232.327 7.51189 231.289 6.51031 229.462 6.51031C227.635 6.51031 226.598 7.51189 226.598 10.1337C226.598 17.6898 237.792 19.1038 237.792 29.5909C237.792 35.4679 234.884 38.8261 229.258 38.8261C223.631 38.8261 220.723 35.4679 220.723 29.5909V27.3374H226.13V29.9592C226.13 32.5809 227.27 33.5236 229.097 33.5236C230.924 33.5236 232.064 32.5809 232.064 29.9592C232.064 22.4031 220.869 20.9891 220.869 10.5019C220.869 4.62497 223.733 1.26672 229.301 1.26672Z" fill="#FFFFFF"/>
<path d="M246.795 38.4137H241.066V1.69385H246.795V17.4246H253.299V1.69385H259.13V38.4137H253.299V22.6682H246.795V38.4137Z" fill="#FFFFFF"/>
<path d="M112.809 54.2181H130.507V59.4617H124.515V90.938H118.786V59.4617H112.809V54.2181Z" fill="#FFFFFF"/>
<path d="M138.72 69.6985H146.583V74.9421H138.72V85.6944H148.614V90.938H133.006V54.2181H148.614V59.4617H138.72V69.6985Z" fill="#FFFFFF"/>
<path d="M168.769 77.2545V82.1299C168.769 88.0068 165.861 91.3651 160.234 91.3651C154.608 91.3651 151.699 88.0068 151.699 82.1299V63.0409C151.699 57.1639 154.608 53.8057 160.234 53.8057C165.861 53.8057 168.769 57.1639 168.769 63.0409V66.6053H163.362V62.6726C163.362 60.0508 162.222 59.0493 160.395 59.0493C158.568 59.0493 157.428 60.0508 157.428 62.6726V82.4981C157.428 85.1199 158.568 86.0626 160.395 86.0626C162.222 86.0626 163.362 85.1199 163.362 82.4981V77.2545H168.769Z" fill="#FFFFFF"/>
<path d="M177.975 90.938H172.246V54.2181H177.975V69.9636H184.478V54.2181H190.31V90.938H184.478V75.2072H177.975V90.938Z" fill="#FFFFFF"/>
<path d="M223.938 90.938H218.165L217.171 84.2804H210.142L209.148 90.938H203.887L209.718 54.2181H218.092L223.923 90.938H223.938ZM210.872 79.2872H216.397L213.635 60.7137L210.872 79.2872Z" fill="#FFFFFF"/>
<path d="M238.567 90.938C238.26 89.9953 238.041 89.4209 238.041 86.4308V80.657C238.041 77.2398 236.901 75.9879 234.3 75.9879H232.327V90.938H226.598V54.2181H235.235C241.168 54.2181 243.711 57.002 243.711 62.658V65.5449C243.711 69.3155 242.513 71.79 239.97 72.9978C242.834 74.2056 243.77 76.9894 243.77 80.819V86.4898C243.77 88.272 243.828 89.5829 244.398 90.9527H238.567V90.938ZM232.327 59.4617V70.7443H234.563C236.696 70.7443 237.997 69.8016 237.997 66.8558V63.2324C237.997 60.6106 237.105 59.4617 235.089 59.4617H232.327Z" fill="#FFFFFF"/>
<path d="M259.641 80.2888L263.543 54.2181H271.508V90.938H266.1V64.6022L262.14 90.938H256.732L252.465 64.9704V90.938H247.467V54.2181H255.432L259.641 80.2888Z" fill="#FFFFFF"/>
<path d="M281.037 78.7717L273.803 54.2181H279.795L284.164 70.9505L288.534 54.2181H294L286.766 78.7717V90.938H281.037V78.7717Z" fill="#FFFFFF"/>
</g>
<defs>
<clipPath id="clip0_674_2389">
<rect width="294" height="93" fill="white"/>
</clipPath>
</defs>
</svg>
